<mxfile host="Electron" modified="2023-09-22T21:02:24.058Z" agent="Mozilla/5.0 (Windows NT 10.0; Win64; x64) AppleWebKit/537.36 (KHTML, like Gecko) draw.io/21.7.5 Chrome/114.0.5735.289 Electron/25.8.1 Safari/537.36" etag="L_EGHB7Rsmp7XXMR0nKE" version="21.7.5" type="device">
  <diagram id="hr3CHglzrVIYJggoL0p3" name="sd">
    <mxGraphModel dx="869" dy="664" grid="1" gridSize="10" guides="1" tooltips="1" connect="1" arrows="1" fold="1" page="1" pageScale="1" pageWidth="1169" pageHeight="827" math="0" shadow="0">
      <root>
        <mxCell id="0" />
        <mxCell id="1" parent="0" />
        <mxCell id="66uLZG1VStO0085huR1o-2" style="edgeStyle=orthogonalEdgeStyle;rounded=0;orthogonalLoop=1;jettySize=auto;html=1;exitX=0.5;exitY=1;exitDx=0;exitDy=0;endArrow=none;endFill=0;" parent="1" source="MWR-3nHuqC7b5rGWYKgy-1" edge="1">
          <mxGeometry relative="1" as="geometry">
            <mxPoint x="540.3103448275863" y="160" as="targetPoint" />
          </mxGeometry>
        </mxCell>
        <mxCell id="MWR-3nHuqC7b5rGWYKgy-1" value="Test ball bearing batch size" style="rounded=0;whiteSpace=wrap;html=1;" parent="1" vertex="1">
          <mxGeometry x="480" y="80" width="120" height="60" as="geometry" />
        </mxCell>
        <mxCell id="MWR-3nHuqC7b5rGWYKgy-6" style="edgeStyle=orthogonalEdgeStyle;rounded=0;orthogonalLoop=1;jettySize=auto;html=1;exitX=0.75;exitY=1;exitDx=0;exitDy=0;endArrow=block;endFill=1;fillColor=#e1d5e7;" parent="1" source="MWR-3nHuqC7b5rGWYKgy-7" edge="1">
          <mxGeometry relative="1" as="geometry">
            <mxPoint x="330" y="280" as="targetPoint" />
          </mxGeometry>
        </mxCell>
        <mxCell id="MWR-3nHuqC7b5rGWYKgy-34" style="edgeStyle=orthogonalEdgeStyle;rounded=0;orthogonalLoop=1;jettySize=auto;html=1;exitX=0.5;exitY=0;exitDx=0;exitDy=0;startArrow=none;startFill=0;endArrow=none;endFill=0;" parent="1" source="MWR-3nHuqC7b5rGWYKgy-7" edge="1">
          <mxGeometry relative="1" as="geometry">
            <mxPoint x="300.2941176470589" y="160" as="targetPoint" />
          </mxGeometry>
        </mxCell>
        <mxCell id="MWR-3nHuqC7b5rGWYKgy-7" value="Get phrase&lt;br&gt;(min 8 characters)" style="rounded=0;whiteSpace=wrap;html=1;" parent="1" vertex="1">
          <mxGeometry x="240" y="200" width="120" height="60" as="geometry" />
        </mxCell>
        <mxCell id="MWR-3nHuqC7b5rGWYKgy-8" value="phrase" style="text;html=1;strokeColor=none;fillColor=none;align=center;verticalAlign=middle;whiteSpace=wrap;rounded=0;" parent="1" vertex="1">
          <mxGeometry x="310" y="280" width="40" height="20" as="geometry" />
        </mxCell>
        <mxCell id="MWR-3nHuqC7b5rGWYKgy-11" style="edgeStyle=orthogonalEdgeStyle;rounded=0;orthogonalLoop=1;jettySize=auto;html=1;exitX=0.75;exitY=1;exitDx=0;exitDy=0;endArrow=block;endFill=1;" parent="1" source="MWR-3nHuqC7b5rGWYKgy-12" edge="1">
          <mxGeometry relative="1" as="geometry">
            <mxPoint x="490" y="280" as="targetPoint" />
          </mxGeometry>
        </mxCell>
        <mxCell id="MWR-3nHuqC7b5rGWYKgy-14" style="edgeStyle=orthogonalEdgeStyle;rounded=0;orthogonalLoop=1;jettySize=auto;html=1;exitX=0.25;exitY=1;exitDx=0;exitDy=0;endArrow=none;endFill=0;startArrow=block;startFill=1;" parent="1" source="MWR-3nHuqC7b5rGWYKgy-12" edge="1">
          <mxGeometry relative="1" as="geometry">
            <mxPoint x="430" y="320" as="targetPoint" />
          </mxGeometry>
        </mxCell>
        <mxCell id="66uLZG1VStO0085huR1o-1" style="edgeStyle=orthogonalEdgeStyle;rounded=0;orthogonalLoop=1;jettySize=auto;html=1;exitX=0.5;exitY=0;exitDx=0;exitDy=0;endArrow=none;endFill=0;" parent="1" source="MWR-3nHuqC7b5rGWYKgy-12" edge="1">
          <mxGeometry relative="1" as="geometry">
            <mxPoint x="460.3103448275863" y="160" as="targetPoint" />
          </mxGeometry>
        </mxCell>
        <mxCell id="MWR-3nHuqC7b5rGWYKgy-12" value="Get first 3 characters" style="rounded=0;whiteSpace=wrap;html=1;" parent="1" vertex="1">
          <mxGeometry x="400" y="200" width="120" height="60" as="geometry" />
        </mxCell>
        <mxCell id="MWR-3nHuqC7b5rGWYKgy-13" value="leftString" style="text;html=1;strokeColor=none;fillColor=none;align=center;verticalAlign=middle;whiteSpace=wrap;rounded=0;" parent="1" vertex="1">
          <mxGeometry x="450" y="280" width="80" height="20" as="geometry" />
        </mxCell>
        <mxCell id="MWR-3nHuqC7b5rGWYKgy-15" value="phrase" style="text;html=1;strokeColor=none;fillColor=none;align=center;verticalAlign=middle;whiteSpace=wrap;rounded=0;" parent="1" vertex="1">
          <mxGeometry x="400" y="320" width="60" height="20" as="geometry" />
        </mxCell>
        <mxCell id="MWR-3nHuqC7b5rGWYKgy-16" style="edgeStyle=orthogonalEdgeStyle;rounded=0;orthogonalLoop=1;jettySize=auto;html=1;exitX=0.75;exitY=1;exitDx=0;exitDy=0;endArrow=block;endFill=1;" parent="1" source="MWR-3nHuqC7b5rGWYKgy-18" edge="1">
          <mxGeometry relative="1" as="geometry">
            <mxPoint x="650" y="280" as="targetPoint" />
          </mxGeometry>
        </mxCell>
        <mxCell id="MWR-3nHuqC7b5rGWYKgy-17" style="edgeStyle=orthogonalEdgeStyle;rounded=0;orthogonalLoop=1;jettySize=auto;html=1;exitX=0.25;exitY=1;exitDx=0;exitDy=0;endArrow=none;endFill=0;startArrow=block;startFill=1;" parent="1" source="MWR-3nHuqC7b5rGWYKgy-18" edge="1">
          <mxGeometry relative="1" as="geometry">
            <mxPoint x="590" y="320" as="targetPoint" />
          </mxGeometry>
        </mxCell>
        <mxCell id="66uLZG1VStO0085huR1o-3" style="edgeStyle=orthogonalEdgeStyle;rounded=0;orthogonalLoop=1;jettySize=auto;html=1;exitX=0.5;exitY=0;exitDx=0;exitDy=0;endArrow=none;endFill=0;" parent="1" source="MWR-3nHuqC7b5rGWYKgy-18" edge="1">
          <mxGeometry relative="1" as="geometry">
            <mxPoint x="620.3103448275863" y="160" as="targetPoint" />
          </mxGeometry>
        </mxCell>
        <mxCell id="MWR-3nHuqC7b5rGWYKgy-18" value="Get last 3 characters" style="rounded=0;whiteSpace=wrap;html=1;" parent="1" vertex="1">
          <mxGeometry x="560" y="200" width="120" height="60" as="geometry" />
        </mxCell>
        <mxCell id="MWR-3nHuqC7b5rGWYKgy-27" style="edgeStyle=orthogonalEdgeStyle;rounded=0;orthogonalLoop=1;jettySize=auto;html=1;exitX=0.25;exitY=1;exitDx=0;exitDy=0;endArrow=none;endFill=0;startArrow=block;startFill=1;" parent="1" source="MWR-3nHuqC7b5rGWYKgy-28" edge="1">
          <mxGeometry relative="1" as="geometry">
            <mxPoint x="750" y="320" as="targetPoint" />
          </mxGeometry>
        </mxCell>
        <mxCell id="66uLZG1VStO0085huR1o-4" style="edgeStyle=orthogonalEdgeStyle;rounded=0;orthogonalLoop=1;jettySize=auto;html=1;exitX=0.5;exitY=0;exitDx=0;exitDy=0;endArrow=none;endFill=0;" parent="1" source="MWR-3nHuqC7b5rGWYKgy-28" edge="1">
          <mxGeometry relative="1" as="geometry">
            <mxPoint x="780.3103448275863" y="160" as="targetPoint" />
          </mxGeometry>
        </mxCell>
        <mxCell id="MWR-3nHuqC7b5rGWYKgy-28" value="Display new word" style="rounded=0;whiteSpace=wrap;html=1;" parent="1" vertex="1">
          <mxGeometry x="720" y="200" width="120" height="60" as="geometry" />
        </mxCell>
        <mxCell id="MWR-3nHuqC7b5rGWYKgy-30" value="leftString&lt;br&gt;rightString" style="text;html=1;strokeColor=none;fillColor=none;align=center;verticalAlign=middle;whiteSpace=wrap;rounded=0;" parent="1" vertex="1">
          <mxGeometry x="710" y="320" width="80" height="30" as="geometry" />
        </mxCell>
        <mxCell id="MWR-3nHuqC7b5rGWYKgy-33" value="" style="endArrow=none;html=1;" parent="1" edge="1">
          <mxGeometry width="50" height="50" relative="1" as="geometry">
            <mxPoint x="300" y="160" as="sourcePoint" />
            <mxPoint x="780" y="160" as="targetPoint" />
          </mxGeometry>
        </mxCell>
        <mxCell id="66uLZG1VStO0085huR1o-5" value="rightString" style="text;html=1;strokeColor=none;fillColor=none;align=center;verticalAlign=middle;whiteSpace=wrap;rounded=0;" parent="1" vertex="1">
          <mxGeometry x="610" y="280" width="80" height="20" as="geometry" />
        </mxCell>
        <mxCell id="66uLZG1VStO0085huR1o-7" value="phrase" style="text;html=1;strokeColor=none;fillColor=none;align=center;verticalAlign=middle;whiteSpace=wrap;rounded=0;" parent="1" vertex="1">
          <mxGeometry x="560" y="320" width="60" height="20" as="geometry" />
        </mxCell>
        <mxCell id="66uLZG1VStO0085huR1o-9" value="&lt;b&gt;Example&lt;/b&gt;&lt;br&gt;&lt;br&gt;Phrase: Should you do that?&lt;br&gt;New word: Shoat?" style="text;html=1;strokeColor=default;fillColor=none;align=left;verticalAlign=top;whiteSpace=wrap;rounded=0;dashed=1;" parent="1" vertex="1">
          <mxGeometry x="460" y="360" width="160" height="70" as="geometry" />
        </mxCell>
      </root>
    </mxGraphModel>
  </diagram>
</mxfile>
